<svg id="Artwork" xmlns="http://www.w3.org/2000/svg" xmlns:xlink="http://www.w3.org/1999/xlink" width="43.77815mm" height="9.44623mm" viewBox="0 0 124.09554 26.77672">
  <defs>
    <linearGradient id="linear-gradient" x1="12.5817" y1="25.0658" x2="12.5817" y2="0.54238" gradientUnits="userSpaceOnUse">
      <stop offset="0" stop-color="#fa233b"/>
      <stop offset="1" stop-color="#fb5c74"/>
    </linearGradient>
  </defs>
  <g>
    <g>
      <path d="M38.16689,20.42059h-4.737l-1.13688,3.359H30.28623L34.77347,11.352h2.08428L41.345,23.77956H39.30377ZM33.9208,18.8703H37.676L35.82422,13.419h-.05168Z" transform="translate(-0.00007 -0.00006)"/>
      <path d="M51.0257,19.24926c0,2.81694-1.50723,4.62561-3.781,4.62561a3.07062,3.07062,0,0,1-2.85081-1.58474h-.04307v4.48666H42.49048V14.719h1.80006v1.5078H44.325a3.21109,3.21109,0,0,1,2.88527-1.602C49.50986,14.62479,51.0257,16.4415,51.0257,19.24926Zm-1.912,0c0-1.83394-.94741-3.03973-2.39435-3.03973-1.4211,0-2.37711,1.231-2.37711,3.03973,0,1.8259.956,3.04891,2.37711,3.04891C48.16627,22.29817,49.11368,21.10157,49.11368,19.24926Z" transform="translate(-0.00007 -0.00006)"/>
      <path d="M60.99064,19.24926c0,2.81694-1.50723,4.62561-3.781,4.62561a3.07065,3.07065,0,0,1-2.85082-1.58474h-.04306v4.48666H52.45542V14.719h1.80006v1.5078h.03445a3.21109,3.21109,0,0,1,2.88527-1.602C59.4748,14.62479,60.99064,16.4415,60.99064,19.24926Zm-1.912,0c0-1.83394-.9474-3.03973-2.39434-3.03973-1.4211,0-2.37711,1.231-2.37711,3.03973,0,1.8259.956,3.04891,2.37711,3.04891C58.13121,22.29817,59.07861,21.10157,59.07861,19.24926Z" transform="translate(-0.00007 -0.00006)"/>
      <path d="M62.48926,11.352h1.86035V23.77956H62.48926Z" transform="translate(-0.00007 -0.00006)"/>
      <path d="M74.03033,21.11879c-.24977,1.64446-1.85174,2.77331-3.90157,2.77331-2.6355,0-4.27192-1.76619-4.27192-4.59921,0-2.8422,1.645-4.68533,4.1944-4.68533,2.50631,0,4.08244,1.72255,4.08244,4.46944v.63734H67.73442v.11254a2.35975,2.35975,0,0,0,2.4374,2.5666,2.05156,2.05156,0,0,0,2.0929-1.27469Zm-6.2873-2.7044h4.5303a2.179,2.179,0,0,0-2.22209-2.30017A2.29432,2.29432,0,0,0,67.743,18.41439Z" transform="translate(-0.00007 -0.00006)"/>
      <path d="M90.17864,23.77956V14.63283h-.05971l-3.74712,9.05256H84.94209l-3.75515-9.05256h-.05971v9.14673h-1.757V11.352h2.23012l4.02273,9.80933h.0689L89.70551,11.352h2.23932V23.77956Z" transform="translate(-0.00007 -0.00006)"/>
      <path d="M101.85062,23.77956h-1.78226V22.22122h-.04364A2.83025,2.83025,0,0,1,97.217,23.88291a3.02084,3.02084,0,0,1-3.17753-3.34978V14.719H95.8998v5.45243c0,1.378.65456,2.10955,1.93729,2.10955a2.09867,2.09867,0,0,0,2.15318-2.34267V14.719h1.86035Z" transform="translate(-0.00007 -0.00006)"/>
      <path d="M107.14114,14.6156c2.0062,0,3.4451,1.11162,3.48759,2.71359h-1.74781c-.07809-.80156-.75793-1.29191-1.79145-1.29191-1.00827,0-1.68006.46509-1.68006,1.17133,0,.542.44786.90376,1.38722,1.13688l1.52388.35255c1.8259.43982,2.51492,1.11162,2.51492,2.438,0,1.63642-1.55029,2.75608-3.76319,2.75608-2.136,0-3.57486-1.0944-3.71266-2.748h1.84312c.12977.87046.82682,1.33555,1.95567,1.33555,1.11047,0,1.80867-.45705,1.80867-1.18052,0-.55926-.34451-.86128-1.29191-1.10243l-1.61919-.39619c-1.63642-.39618-2.46325-1.231-2.46325-2.48851C103.59269,15.71,105.03045,14.6156,107.14114,14.6156Z" transform="translate(-0.00007 -0.00006)"/>
      <path d="M112.28467,12.3338a1.08083,1.08083,0,1,1,1.076,1.05879A1.06917,1.06917,0,0,1,112.28467,12.3338Zm.14584,2.38516h1.86035v9.0606h-1.86035Z" transform="translate(-0.00007 -0.00006)"/>
      <path d="M122.30416,17.83677a2.00238,2.00238,0,0,0-2.136-1.67087c-1.42972,0-2.37712,1.19774-2.37712,3.08336,0,1.92925.95544,3.09254,2.39434,3.09254a1.95084,1.95084,0,0,0,2.11874-1.62838h1.79145a3.62172,3.62172,0,0,1-3.92741,3.17868c-2.58383,0-4.27192-1.76619-4.27192-4.64284,0-2.8158,1.68809-4.6417,4.25469-4.6417a3.64194,3.64194,0,0,1,3.92741,3.22921Z" transform="translate(-0.00007 -0.00006)"/>
    </g>
    <g>
      <path d="M30.87744,7.53739V1.48271H33.311c1.13671,0,1.82128.5791,1.82128,1.51074A1.326,1.326,0,0,1,34.0708,4.29423v.07129a1.4309,1.4309,0,0,1,1.36328,1.45605c0,1.06543-.77636,1.71582-2.06836,1.71582Zm.93945-3.49121h1.11622c.831,0,1.26367-.30566,1.26367-.88086,0-.55859-.40723-.88574-1.10449-.88574h-1.2754Zm1.35938,2.69434c.84766,0,1.29687-.34375,1.29687-.98633,0-.63379-.46582-.96484-1.35058-.96484H31.81689V6.74052Z" transform="translate(-0.00007 -0.00006)"/>
      <path d="M40.521,6.304a1.85567,1.85567,0,0,1-1.98047,1.32129A2.07508,2.07508,0,0,1,36.4292,5.26786a2.10734,2.10734,0,0,1,2.10644-2.38769c1.27149,0,2.04.86816,2.04,2.30371v.31445H37.34814v.05078a1.20714,1.20714,0,0,0,1.2168,1.3086A1.09593,1.09593,0,0,0,39.65186,6.304ZM37.34814,4.83134h2.3086a1.10329,1.10329,0,0,0-1.125-1.1836A1.1687,1.1687,0,0,0,37.34814,4.83134Z" transform="translate(-0.00007 -0.00006)"/>
      <path d="M41.82275,1.18485h.90235V7.53739h-.90235Z" transform="translate(-0.00007 -0.00006)"/>
      <path d="M48.05518,7.53739H47.186V6.81181h-.07129a1.36865,1.36865,0,0,1-1.37989.81347,1.48322,1.48322,0,0,1-1.57422-1.69043V2.96806H45.063V5.6995c0,.73828.29785,1.09082.96094,1.09082a1.03685,1.03685,0,0,0,1.1289-1.14941V2.96806h.90235Z" transform="translate(-0.00007 -0.00006)"/>
      <path d="M49.36865,1.61649a.58453.58453,0,1,1,.583.54981A.55563.55563,0,0,1,49.36865,1.61649Zm.13379,1.35157h.89844V7.53739h-.89844Z" transform="translate(-0.00007 -0.00006)"/>
      <path d="M53.523,2.88017c1.02832,0,1.70019.47851,1.78809,1.28418h-.86426c-.084-.33594-.41114-.54981-.92383-.54981-.50293,0-.88477.23926-.88477.5957,0,.27247.23047.44434.72559.55762l.75977.17676c.86816.20117,1.27539.57422,1.27539,1.24609,0,.86035-.80176,1.43457-1.89258,1.43457-1.08692,0-1.7959-.49023-1.875-1.30078h.90137a.92854.92854,0,0,0,.99511.57129c.5625,0,.96094-.25195.96094-.61719,0-.27246-.21387-.44921-.67188-.55761L53.02,5.53642c-.86914-.20606-1.27148-.59668-1.27148-1.27637C51.74854,3.45048,52.49072,2.88017,53.523,2.88017Z" transform="translate(-0.00007 -0.00006)"/>
      <path d="M57.79736,1.83134V2.98856h.99024v.75977h-.99024V6.09794c0,.47852.19727.68848.64551.68848a2.96249,2.96249,0,0,0,.34473-.02051v.751a2.89764,2.89764,0,0,1-.49121.04589c-1.00293,0-1.40137-.35254-1.40137-1.23339V3.74833h-.72559V2.98856H56.895V1.83134Z" transform="translate(-0.00007 -0.00006)"/>
      <path d="M63.78857,6.304a1.85565,1.85565,0,0,1-1.98046,1.32129,2.07508,2.07508,0,0,1-2.11133-2.35742,2.10734,2.10734,0,0,1,2.10644-2.38769c1.27149,0,2.04.86816,2.04,2.30371v.31445H60.61572v.05078a1.20714,1.20714,0,0,0,1.2168,1.3086A1.0959,1.0959,0,0,0,62.91943,6.304ZM60.61572,4.83134h2.3086a1.10329,1.10329,0,0,0-1.125-1.1836A1.16869,1.16869,0,0,0,60.61572,4.83134Z" transform="translate(-0.00007 -0.00006)"/>
      <path d="M65.04834,2.96806h.86914v.70117h.06738a1.23885,1.23885,0,0,1,1.2334-.77637,1.96067,1.96067,0,0,1,.40235.03711v.88965a2.45673,2.45673,0,0,0-.50293-.05469,1.07105,1.07105,0,0,0-1.167,1.07422V7.53739h-.90234Z" transform="translate(-0.00007 -0.00006)"/>
      <path d="M70.86475,5.25028a2.16457,2.16457,0,1,1,4.30957,0,2.165,2.165,0,1,1-4.30957,0Zm3.38281,0c0-.99023-.44531-1.56933-1.22559-1.56933-.78515,0-1.22558.5791-1.22558,1.56933,0,.999.44043,1.57422,1.22558,1.57422C73.80225,6.8245,74.24756,6.2454,74.24756,5.25028Z" transform="translate(-0.00007 -0.00006)"/>
      <path d="M80.647,5.25028c0,1.45215-.73437,2.36328-1.88769,2.36328A1.49173,1.49173,0,0,1,77.353,6.845h-.07129V9.05692h-.90235V2.96806h.86915v.75488h.06738a1.58768,1.58768,0,0,1,1.43457-.83008C79.9126,2.89286,80.647,3.79911,80.647,5.25028Zm-.92675,0c0-.96484-.458-1.54785-1.22168-1.54785-.75977,0-1.23341.59571-1.23341,1.55274,0,.95214.47364,1.54785,1.2295,1.54785C79.26221,6.803,79.72022,6.22,79.72022,5.25028Z" transform="translate(-0.00007 -0.00006)"/>
    </g>
    <g>
      <path d="M25.16333,7.87146c0-.30054.00013-.60107-.00169-.90161-.00154-.25317-.00447-.50627-.01131-.75936A11.0312,11.0312,0,0,0,25.005,4.558a5.57752,5.57752,0,0,0-.51789-1.57171A5.2842,5.2842,0,0,0,22.17693.67616,5.57668,5.57668,0,0,0,20.60606.1585,11.02747,11.02747,0,0,0,18.95291.01307c-.25309-.00685-.50619-.00977-.75935-.01131-.30054-.00182-.60108-.00169-.90162-.00169H7.87146c-.30054,0-.60108-.00013-.90162.00169-.25316.00154-.50626.00446-.75935.01131A11.02759,11.02759,0,0,0,4.55734.1585,5.57657,5.57657,0,0,0,2.98647.67616,5.2842,5.2842,0,0,0,.67627,2.98625,5.57752,5.57752,0,0,0,.15838,4.558,11.03384,11.03384,0,0,0,.01306,6.21049c-.00683.25309-.00976.50619-.0113.75936-.00183.30054-.00169.60107-.00169.90161v9.42048c0,.30054-.00014.60107.00169.90161.00154.25316.00447.50626.0113.75935a11.034,11.034,0,0,0,.14532,1.65254,5.57763,5.57763,0,0,0,.51789,1.57171,5.2842,5.2842,0,0,0,2.3102,2.31009,5.57689,5.57689,0,0,0,1.57087.51766,11.0289,11.0289,0,0,0,1.65315.14543c.25309.00684.50619.00977.75935.01131.30054.00182.60108.00169.90162.00169h9.42048c.30054,0,.60108.00013.90162-.00169.25316-.00154.50626-.00447.75935-.01131a11.02879,11.02879,0,0,0,1.65315-.14543,5.577,5.577,0,0,0,1.57087-.51766,5.2842,5.2842,0,0,0,2.3102-2.31009,5.57763,5.57763,0,0,0,.51789-1.57171,11.03133,11.03133,0,0,0,.14531-1.65254c.00684-.25309.00977-.50619.01131-.75935.00182-.30054.00169-.60107.00169-.90161Z" transform="translate(-0.00007 -0.00006)" style="fill-rule: evenodd;fill: url(#linear-gradient)"/>
      <g id="Glyph">
        <path d="M17.78937,3.84434c-.06073.00525-.60126.10126-.66614.1145L9.6441,5.46775l-.0028.00061A1.04367,1.04367,0,0,0,9.175,5.678a.76009.76009,0,0,0-.25159.48559,1.6755,1.6755,0,0,0-.01709.25318s.00012,7.64105.00018,9.36047a.907.907,0,0,1-.16552.61243.84757.84757,0,0,1-.5456.27875l-.48828.09851a8.53176,8.53176,0,0,0-1.38409.35028,2.18032,2.18032,0,0,0-.81635.52472A1.99129,1.99129,0,0,0,5.60577,20.452a1.88582,1.88582,0,0,0,.908.46558,3.34441,3.34441,0,0,0,1.34943-.06836,2.75327,2.75327,0,0,0,.874-.32245,2.19325,2.19325,0,0,0,.68842-.63665,2.333,2.333,0,0,0,.36657-.86329,4.3382,4.3382,0,0,0,.08356-.927V9.98094c0-.43506.12329-.54969.47394-.6344,0,0,6.21692-1.25385,6.50647-1.31025.405-.07788.59515.03772.59515.4618l-.00012,5.54223a.92171.92171,0,0,1-.15149.62366.84791.84791,0,0,1-.54565.27875q-.24417.04925-.48828.09845a8.534,8.534,0,0,0-1.3841.35034,2.17915,2.17915,0,0,0-.81634.52472,1.95633,1.95633,0,0,0,.09912,2.81,1.87946,1.87946,0,0,0,.908.461,3.344,3.344,0,0,0,1.34942-.06836,2.74341,2.74341,0,0,0,.874-.31774,2.1951,2.1951,0,0,0,.68847-.63672,2.33479,2.33479,0,0,0,.36658-.86328,4.326,4.326,0,0,0,.06988-.927V4.50565C18.42065,4.07487,18.19366,3.80943,17.78937,3.84434Z" transform="translate(-0.00007 -0.00006)" style="fill: #fff;fill-rule: evenodd"/>
      </g>
    </g>
  </g>
</svg>
